<mxfile host="app.diagrams.net" modified="2023-11-12T02:41:32.585Z" agent="Mozilla/5.0 (Windows NT 10.0; Win64; x64) AppleWebKit/537.36 (KHTML, like Gecko) Chrome/119.0.0.0 Safari/537.36" etag="bppN57cUReGCzwdoWIOg" version="22.1.0" type="google">
  <diagram name="Page-1" id="jKIh2TqsxGCDJeCQCvyG">
    <mxGraphModel grid="1" page="1" gridSize="10" guides="1" tooltips="1" connect="1" arrows="1" fold="1" pageScale="1" pageWidth="850" pageHeight="1100" math="0" shadow="0">
      <root>
        <mxCell id="0" />
        <mxCell id="1" parent="0" />
        <mxCell id="eBX7zIV5baBGaml72XJu-2" value="" style="rounded=0;whiteSpace=wrap;html=1;" vertex="1" parent="1">
          <mxGeometry x="150" y="120" width="510" height="380" as="geometry" />
        </mxCell>
        <mxCell id="eBX7zIV5baBGaml72XJu-11" style="edgeStyle=orthogonalEdgeStyle;rounded=0;orthogonalLoop=1;jettySize=auto;html=1;exitX=0.5;exitY=0.5;exitDx=0;exitDy=0;exitPerimeter=0;entryX=0;entryY=0.5;entryDx=0;entryDy=0;" edge="1" parent="1" source="eBX7zIV5baBGaml72XJu-1" target="eBX7zIV5baBGaml72XJu-8">
          <mxGeometry relative="1" as="geometry" />
        </mxCell>
        <mxCell id="eBX7zIV5baBGaml72XJu-1" value="User" style="shape=umlActor;verticalLabelPosition=bottom;verticalAlign=top;html=1;outlineConnect=0;" vertex="1" parent="1">
          <mxGeometry x="70" y="155.25" width="30" height="60" as="geometry" />
        </mxCell>
        <mxCell id="eBX7zIV5baBGaml72XJu-3" value="System&lt;br&gt;" style="text;html=1;align=center;verticalAlign=middle;resizable=0;points=[];autosize=1;strokeColor=none;fillColor=none;" vertex="1" parent="1">
          <mxGeometry x="370" y="120" width="60" height="30" as="geometry" />
        </mxCell>
        <mxCell id="eBX7zIV5baBGaml72XJu-12" style="edgeStyle=orthogonalEdgeStyle;rounded=0;orthogonalLoop=1;jettySize=auto;html=1;exitX=0.5;exitY=1;exitDx=0;exitDy=0;entryX=0.5;entryY=0;entryDx=0;entryDy=0;dashed=1;" edge="1" parent="1" source="eBX7zIV5baBGaml72XJu-8" target="eBX7zIV5baBGaml72XJu-10">
          <mxGeometry relative="1" as="geometry" />
        </mxCell>
        <mxCell id="eBX7zIV5baBGaml72XJu-13" value="&amp;lt;&amp;lt;Include&amp;gt;&amp;gt;" style="edgeLabel;html=1;align=center;verticalAlign=middle;resizable=0;points=[];" vertex="1" connectable="0" parent="eBX7zIV5baBGaml72XJu-12">
          <mxGeometry x="-0.0368" y="1" relative="1" as="geometry">
            <mxPoint as="offset" />
          </mxGeometry>
        </mxCell>
        <mxCell id="eBX7zIV5baBGaml72XJu-15" style="edgeStyle=orthogonalEdgeStyle;rounded=0;orthogonalLoop=1;jettySize=auto;html=1;exitX=1;exitY=0.5;exitDx=0;exitDy=0;entryX=0;entryY=0.5;entryDx=0;entryDy=0;" edge="1" parent="1" source="eBX7zIV5baBGaml72XJu-8" target="eBX7zIV5baBGaml72XJu-14">
          <mxGeometry relative="1" as="geometry" />
        </mxCell>
        <mxCell id="eBX7zIV5baBGaml72XJu-8" value="Open Application" style="ellipse;whiteSpace=wrap;html=1;" vertex="1" parent="1">
          <mxGeometry x="170" y="160.5" width="100" height="49.5" as="geometry" />
        </mxCell>
        <mxCell id="eBX7zIV5baBGaml72XJu-10" value="Display Cached Parameters" style="ellipse;whiteSpace=wrap;html=1;" vertex="1" parent="1">
          <mxGeometry x="170" y="250" width="100" height="50" as="geometry" />
        </mxCell>
        <mxCell id="eBX7zIV5baBGaml72XJu-17" style="edgeStyle=orthogonalEdgeStyle;rounded=0;orthogonalLoop=1;jettySize=auto;html=1;exitX=0.5;exitY=1;exitDx=0;exitDy=0;entryX=0.5;entryY=0;entryDx=0;entryDy=0;" edge="1" parent="1" source="eBX7zIV5baBGaml72XJu-14" target="eBX7zIV5baBGaml72XJu-16">
          <mxGeometry relative="1" as="geometry" />
        </mxCell>
        <mxCell id="eBX7zIV5baBGaml72XJu-23" style="edgeStyle=orthogonalEdgeStyle;rounded=0;orthogonalLoop=1;jettySize=auto;html=1;exitX=1;exitY=0.5;exitDx=0;exitDy=0;entryX=0;entryY=0.5;entryDx=0;entryDy=0;dashed=1;" edge="1" parent="1" source="eBX7zIV5baBGaml72XJu-14" target="eBX7zIV5baBGaml72XJu-22">
          <mxGeometry relative="1" as="geometry" />
        </mxCell>
        <mxCell id="eBX7zIV5baBGaml72XJu-24" value="&amp;lt;&amp;lt;Extend&amp;gt;&amp;gt;" style="edgeLabel;html=1;align=center;verticalAlign=middle;resizable=0;points=[];" vertex="1" connectable="0" parent="eBX7zIV5baBGaml72XJu-23">
          <mxGeometry x="0.208" relative="1" as="geometry">
            <mxPoint as="offset" />
          </mxGeometry>
        </mxCell>
        <mxCell id="eBX7zIV5baBGaml72XJu-14" value="Input Parameters" style="ellipse;whiteSpace=wrap;html=1;" vertex="1" parent="1">
          <mxGeometry x="310" y="160.5" width="100" height="49.5" as="geometry" />
        </mxCell>
        <mxCell id="eBX7zIV5baBGaml72XJu-19" style="edgeStyle=orthogonalEdgeStyle;rounded=0;orthogonalLoop=1;jettySize=auto;html=1;exitX=0.5;exitY=1;exitDx=0;exitDy=0;entryX=0.5;entryY=0;entryDx=0;entryDy=0;dashed=1;" edge="1" parent="1" source="eBX7zIV5baBGaml72XJu-16" target="eBX7zIV5baBGaml72XJu-18">
          <mxGeometry relative="1" as="geometry" />
        </mxCell>
        <mxCell id="eBX7zIV5baBGaml72XJu-20" value="&amp;lt;&amp;lt;Include&amp;gt;&amp;gt;" style="edgeLabel;html=1;align=center;verticalAlign=middle;resizable=0;points=[];" vertex="1" connectable="0" parent="eBX7zIV5baBGaml72XJu-19">
          <mxGeometry x="-0.1182" y="1" relative="1" as="geometry">
            <mxPoint as="offset" />
          </mxGeometry>
        </mxCell>
        <mxCell id="eBX7zIV5baBGaml72XJu-16" value="Display Filtered Locations" style="ellipse;whiteSpace=wrap;html=1;" vertex="1" parent="1">
          <mxGeometry x="310" y="240" width="100" height="49.5" as="geometry" />
        </mxCell>
        <mxCell id="eBX7zIV5baBGaml72XJu-18" value="Export to KML" style="ellipse;whiteSpace=wrap;html=1;" vertex="1" parent="1">
          <mxGeometry x="310" y="340" width="100" height="50" as="geometry" />
        </mxCell>
        <mxCell id="eBX7zIV5baBGaml72XJu-25" style="edgeStyle=orthogonalEdgeStyle;rounded=0;orthogonalLoop=1;jettySize=auto;html=1;exitX=0.5;exitY=0.5;exitDx=0;exitDy=0;exitPerimeter=0;entryX=1;entryY=0.5;entryDx=0;entryDy=0;" edge="1" parent="1" source="eBX7zIV5baBGaml72XJu-21" target="eBX7zIV5baBGaml72XJu-22">
          <mxGeometry relative="1" as="geometry" />
        </mxCell>
        <mxCell id="eBX7zIV5baBGaml72XJu-21" value="Data Filter" style="shape=umlActor;verticalLabelPosition=bottom;verticalAlign=top;html=1;outlineConnect=0;" vertex="1" parent="1">
          <mxGeometry x="710" y="155.25" width="30" height="60" as="geometry" />
        </mxCell>
        <mxCell id="S-EUbkgN9fCbJPhhk9Ie-2" style="edgeStyle=orthogonalEdgeStyle;rounded=0;orthogonalLoop=1;jettySize=auto;html=1;exitX=0.5;exitY=1;exitDx=0;exitDy=0;entryX=0.5;entryY=0;entryDx=0;entryDy=0;" edge="1" parent="1" source="eBX7zIV5baBGaml72XJu-22" target="S-EUbkgN9fCbJPhhk9Ie-1">
          <mxGeometry relative="1" as="geometry" />
        </mxCell>
        <mxCell id="eBX7zIV5baBGaml72XJu-22" value="Accept Parameters" style="ellipse;whiteSpace=wrap;html=1;" vertex="1" parent="1">
          <mxGeometry x="530" y="160.5" width="100" height="49.5" as="geometry" />
        </mxCell>
        <mxCell id="S-EUbkgN9fCbJPhhk9Ie-4" style="edgeStyle=orthogonalEdgeStyle;rounded=0;orthogonalLoop=1;jettySize=auto;html=1;exitX=0.5;exitY=1;exitDx=0;exitDy=0;entryX=0.5;entryY=0;entryDx=0;entryDy=0;dashed=1;" edge="1" parent="1" source="S-EUbkgN9fCbJPhhk9Ie-1" target="S-EUbkgN9fCbJPhhk9Ie-3">
          <mxGeometry relative="1" as="geometry" />
        </mxCell>
        <mxCell id="S-EUbkgN9fCbJPhhk9Ie-5" value="&amp;lt;&amp;lt;Extend&amp;gt;&amp;gt;" style="edgeLabel;html=1;align=center;verticalAlign=middle;resizable=0;points=[];" connectable="0" vertex="1" parent="S-EUbkgN9fCbJPhhk9Ie-4">
          <mxGeometry x="-0.32" y="1" relative="1" as="geometry">
            <mxPoint as="offset" />
          </mxGeometry>
        </mxCell>
        <mxCell id="S-EUbkgN9fCbJPhhk9Ie-1" value="Filter Locations" style="ellipse;whiteSpace=wrap;html=1;" vertex="1" parent="1">
          <mxGeometry x="530" y="250.5" width="100" height="49.5" as="geometry" />
        </mxCell>
        <mxCell id="S-EUbkgN9fCbJPhhk9Ie-7" style="edgeStyle=orthogonalEdgeStyle;rounded=0;orthogonalLoop=1;jettySize=auto;html=1;exitX=0.5;exitY=1;exitDx=0;exitDy=0;entryX=0.5;entryY=0;entryDx=0;entryDy=0;" edge="1" parent="1" source="S-EUbkgN9fCbJPhhk9Ie-3" target="S-EUbkgN9fCbJPhhk9Ie-6">
          <mxGeometry relative="1" as="geometry" />
        </mxCell>
        <mxCell id="S-EUbkgN9fCbJPhhk9Ie-3" value="Fetch Necessary Data" style="ellipse;whiteSpace=wrap;html=1;" vertex="1" parent="1">
          <mxGeometry x="525" y="350" width="110" height="49.5" as="geometry" />
        </mxCell>
        <mxCell id="S-EUbkgN9fCbJPhhk9Ie-6" value="Parse Data" style="ellipse;whiteSpace=wrap;html=1;" vertex="1" parent="1">
          <mxGeometry x="530" y="440" width="100" height="49.5" as="geometry" />
        </mxCell>
      </root>
    </mxGraphModel>
  </diagram>
</mxfile>
